<?xml version="1.0" encoding="UTF-8" standalone="no"?>
<!DOCTYPE svg PUBLIC "-//W3C//DTD SVG 1.1//EN" "http://www.w3.org/Graphics/SVG/1.1/DTD/svg11.dtd">
<svg width="100%" height="100%" viewBox="0 0 1000 280" version="1.1" xmlns="http://www.w3.org/2000/svg" xmlns:xlink="http://www.w3.org/1999/xlink" xml:space="preserve" xmlns:serif="http://www.serif.com/" style="fill-rule:evenodd;clip-rule:evenodd;stroke-linejoin:round;stroke-miterlimit:2;">
    <g transform="matrix(0.139719,0,0,0.172493,46.0283,57.0709)">
        <path d="M461.049,1000.29C359.706,999.384 274.826,985.978 206.407,960.074C137.988,934.17 88.77,894.856 58.753,842.131C28.735,789.407 21.002,724.402 35.552,647.117L312.488,648.481C307.472,678.079 311.11,703.23 323.401,723.933C335.692,744.636 357.568,760.452 389.028,771.379C420.488,782.306 461.78,787.769 512.906,787.769C554.398,787.769 590.643,782.988 621.641,773.425C652.639,763.862 670.426,746.299 675.001,720.736C678.653,701.127 672.731,685.049 657.236,672.502C641.74,659.955 621.016,649.806 595.062,642.054C569.108,634.303 531.528,624.73 482.32,613.334C395.017,594.222 323.074,573.639 266.492,551.586C209.91,529.533 163.669,493.523 127.768,443.555C91.868,393.587 81.641,326.131 97.086,241.187C114.806,143.908 165.143,72.317 248.098,26.414C331.053,-19.49 451.358,-41.987 609.012,-41.078C724.01,-41.078 814.691,-27.099 881.056,0.858C947.422,28.815 991.745,67.785 1014.02,117.767C1036.31,167.748 1040.63,228.178 1027.01,299.055L752.095,298.352C755.732,273.783 754.258,252.629 747.672,234.888C741.086,217.148 724.343,202.59 697.445,191.215C670.546,179.841 630.404,174.153 577.019,174.153C525.069,174.153 484.842,179.965 456.338,191.588C427.834,203.212 411.528,220.199 407.422,242.551C403.315,262.16 409.006,278.348 424.495,291.115C439.983,303.883 460.931,314.252 487.34,322.223C513.748,330.195 551.087,339.651 599.357,350.593C685.296,369.69 756.222,390.152 812.137,411.978C868.051,433.804 913.848,468.798 949.528,516.961C985.209,565.124 996.001,630.328 981.905,712.573C964.186,815.293 912.36,889.154 826.428,934.156C740.496,979.157 618.703,1001.2 461.049,1000.29Z" style="fill:rgb(20,43,63);fill-rule:nonzero;"/>
        <path d="M1829.89,-17.909L2116.29,-17.909L1941.03,977.125L1654.6,977.125L1829.89,-17.909ZM1177.42,-17.909L1463.84,-17.909L1288.55,977.125L1002.13,977.125L1177.42,-17.909ZM1305.78,341.747L1878.7,341.747L1834.48,597.561L1260.87,597.561L1305.78,341.747Z" style="fill:rgb(20,43,63);fill-rule:nonzero;"/>
        <path d="M2301.45,-17.909L2587.87,-17.909L2412.58,977.125L2126.16,977.125L2301.45,-17.909Z" style="fill:rgb(20,43,63);fill-rule:nonzero;"/>
        <path d="M2615.66,474.556L2954.16,474.556C3015.65,474.556 3062.8,472.166 3095.59,467.384C3128.37,462.603 3155.01,450.99 3175.5,432.546C3195.99,414.102 3209.65,385.292 3216.47,346.117C3221.94,311.034 3219.1,284.497 3207.94,266.508C3196.79,248.519 3176.64,236.228 3147.5,229.634C3118.35,223.041 3076.22,219.745 3021.08,219.745L2668.29,219.745L2708.44,-17.909L2993.71,-17.909C3141.83,-17.909 3255.09,-6.325 3333.47,16.844C3411.86,40.012 3464.46,79.316 3491.28,134.754C3518.11,190.192 3522.19,268.583 3503.55,369.925C3486.74,465.37 3457.31,537.522 3415.26,586.382C3373.2,635.241 3311.39,669.099 3229.82,687.955C3148.25,706.811 3032.95,716.239 2883.92,716.239L2574.16,716.239L2615.66,474.556ZM2620.65,-17.909L2907.07,-17.909L2731.78,977.125L2445.36,977.125L2620.65,-17.909Z" style="fill:rgb(20,43,63);fill-rule:nonzero;"/>
        <path d="M3634.66,474.556L3973.15,474.556C4034.64,474.556 4081.79,472.166 4114.58,467.384C4147.37,462.603 4174.01,450.99 4194.49,432.546C4214.98,414.102 4228.64,385.292 4235.46,346.117C4240.93,311.034 4238.09,284.497 4226.94,266.508C4215.78,248.519 4195.63,236.228 4166.49,229.634C4137.34,223.041 4095.21,219.745 4040.07,219.745L3687.28,219.745L3727.44,-17.909L4012.71,-17.909C4160.83,-17.909 4274.08,-6.325 4352.47,16.844C4430.85,40.012 4483.46,79.316 4510.28,134.754C4537.1,190.192 4541.19,268.583 4522.54,369.925C4505.73,465.37 4476.3,537.522 4434.25,586.382C4392.19,635.241 4330.38,669.099 4248.81,687.955C4167.24,706.811 4051.95,716.239 3902.92,716.239L3593.16,716.239L3634.66,474.556ZM3639.64,-17.909L3926.06,-17.909L3750.78,977.125L3464.35,977.125L3639.64,-17.909Z" style="fill:rgb(20,43,63);fill-rule:nonzero;"/>
        <path d="M4658.63,-17.909L4945.06,-17.909L4769.77,977.125L4483.35,977.125L4658.63,-17.909ZM4733.7,736.786L5334.23,736.786L5292.03,977.125L4690.82,977.125L4733.7,736.786ZM4797.88,363.424L5309.04,363.424L5268.86,590.996L4759.05,590.996L4797.88,363.424ZM4865.4,-17.909L5455.72,-17.909L5412.84,222.43L4822.52,222.43L4865.4,-17.909Z" style="fill:rgb(20,43,63);fill-rule:nonzero;"/>
        <path d="M5487.14,731.414L5862.87,731.414C5928.96,731.414 5981.72,723.777 6021.15,708.502C6060.58,693.226 6091.35,667.369 6113.46,630.928C6135.57,594.488 6152.54,542.798 6164.38,475.857C6175.76,409.839 6177.24,359.516 6168.8,324.888C6160.37,290.259 6140.76,266.217 6109.98,252.76C6079.19,239.304 6033.02,232.576 5971.46,232.576L5581.44,232.576L5624.32,-17.909L5940.2,-17.909C6105.61,-17.909 6228.54,1.192 6308.99,39.394C6389.43,77.596 6438.86,133.411 6457.27,206.839C6475.68,280.266 6473.98,378.109 6452.16,500.368C6431.7,617.639 6401.47,709.471 6361.45,775.865C6321.44,842.259 6256.43,892.401 6166.43,926.291C6076.42,960.18 5948.71,977.125 5783.28,977.125L5444.26,977.125L5487.14,731.414ZM5568.5,-17.909L5854.92,-17.909L5679.63,977.125L5393.21,977.125L5568.5,-17.909Z" style="fill:rgb(20,43,63);fill-rule:nonzero;"/>
    </g>
</svg>
